<svg width="515" height="455" viewBox="0 0 515 455" fill="none" xmlns="http://www.w3.org/2000/svg">
<path d="M398.882 291.481C398.445 290.727 398.179 289.887 398.103 289.019C398.026 288.151 398.14 287.277 398.438 286.458C398.736 285.639 399.209 284.895 399.825 284.279C400.441 283.663 401.184 283.19 402.003 282.892L401.696 261.715L410.968 267.641L409.838 286.842C410.246 288.251 410.124 289.761 409.494 291.085C408.864 292.41 407.77 293.457 406.42 294.029C405.069 294.601 403.556 294.658 402.167 294.188C400.778 293.718 399.609 292.755 398.882 291.481Z" fill="#A0616A"/>
<path d="M387.708 176.508C384.96 176.994 382.465 178.418 380.648 180.537C378.831 182.656 377.805 185.34 377.743 188.131C377.609 194.329 379.677 196.639 382.599 197.475C388 199.018 396.602 230.239 396.602 230.239C396.602 230.239 397.515 259.358 398.987 257.92C400.46 256.482 398.793 259.837 399.241 260.861C399.688 261.885 397.12 263.418 399.561 264.581C402.003 265.744 400.46 275.006 400.46 275.006L411.262 274.235C411.262 274.235 409.468 266.689 411.908 266.217C414.348 265.744 413.24 263.597 412.251 261.969C411.262 260.341 414 258.021 412.631 257.251C411.262 256.482 415.12 226.379 415.12 226.379L400.036 181.982C398.76 179.946 396.904 178.337 394.708 177.362C392.512 176.386 390.074 176.089 387.708 176.508Z" fill="#3F3D56"/>
<path d="M354.936 178.255L362.706 164.631H373.205L381.079 179.027L354.936 178.255Z" fill="#3F3D56"/>
<path d="M334.034 55.7328C327.825 34.9278 310.284 21.3458 289.087 18.3662C288.854 18.3333 288.633 18.3767 288.401 18.3617C288.101 18.27 287.794 18.1994 287.484 18.1506C258.335 14.382 226.515 21.1315 201.188 36.9831C176.912 52.1775 149.018 60.7509 120.382 60.5604C119.493 60.5546 118.6 60.5738 117.704 60.6183C95.6664 61.7183 76.2178 77.7654 70.2601 98.8721C69.4783 101.641 70.8407 104.116 73.0316 105.685C76.8814 108.443 79.511 110.376 84.2476 111.38C92.6993 113.171 101.18 114.818 109.689 116.321V82.4142C109.693 79.2042 110.969 76.1268 113.238 73.857C115.507 71.5872 118.584 70.3103 121.793 70.3066H288.048C291.257 70.3103 294.334 71.5872 296.603 73.857C298.872 76.1268 300.148 79.2042 300.152 82.4142V124.641C302.432 123.927 304.658 123.051 306.813 122.018C314.833 118.055 321.685 112.074 326.696 104.661C336.321 90.6901 338.863 71.9138 334.034 55.7328Z" fill="#F2F2F2"/>
<path d="M264.033 254.166H117.061C113.67 254.162 110.418 252.813 108.02 250.414C105.622 248.015 104.273 244.762 104.269 241.37V184.321C86.3678 178.839 67.5141 177.186 48.9327 179.469C48.6227 179.518 48.3165 179.589 48.0163 179.68C47.7842 179.695 47.5629 179.652 47.3297 179.685C26.1335 182.664 8.59214 196.246 2.38313 217.051C-2.44624 233.232 0.0960267 252.009 9.72142 265.979C14.7321 273.392 21.5841 279.374 29.6044 283.336C40.6285 288.648 52.2317 289.048 64.264 289.423C100.39 290.551 136.551 289.183 172.489 285.331C190.175 283.433 207.788 280.953 225.327 277.891C234.304 276.32 243.252 274.589 252.17 272.699C256.906 271.695 259.536 269.762 263.386 267.004C265.576 265.434 266.939 262.96 266.157 260.191C265.576 258.14 264.867 256.128 264.033 254.166Z" fill="#F2F2F2"/>
<path d="M277.04 237.242H132.801C130.017 237.239 127.348 236.131 125.379 234.162C123.411 232.192 122.304 229.522 122.3 226.738V92.6479C122.304 89.8629 123.411 87.193 125.379 85.2238C127.348 83.2546 130.017 82.1468 132.801 82.1436H277.04C279.824 82.1468 282.493 83.2546 284.462 85.2238C286.43 87.193 287.538 89.8629 287.541 92.6479V226.737C287.538 229.522 286.43 232.192 284.462 234.162C282.493 236.131 279.824 237.239 277.04 237.242Z" fill="#E6E6E6"/>
<path d="M246.682 230.156H139.885C137.101 230.153 134.432 229.045 132.464 227.076C130.495 225.107 129.388 222.437 129.385 219.652V99.7387C129.388 96.9538 130.495 94.2839 132.464 92.3147C134.432 90.3455 137.101 89.2377 139.885 89.2345H269.957C272.741 89.2377 275.41 90.3455 277.379 92.3147C279.347 94.2839 280.455 96.9538 280.458 99.7387V196.369C280.448 205.327 276.886 213.915 270.554 220.249C264.222 226.583 255.637 230.146 246.682 230.156Z" fill="white"/>
<path d="M204.922 206.779C230.916 206.779 251.989 185.699 251.989 159.695C251.989 133.692 230.916 112.612 204.922 112.612C178.927 112.612 157.854 133.692 157.854 159.695C157.854 185.699 178.927 206.779 204.922 206.779Z" fill="#47BF71"/>
<path d="M224.749 157.327L209.042 138.22C208.616 137.702 208.082 137.282 207.478 136.991C206.874 136.699 206.213 136.542 205.543 136.531C204.872 136.52 204.207 136.655 203.593 136.926C202.98 137.198 202.433 137.599 201.989 138.103L185.193 157.21C184.384 158.132 183.974 159.339 184.053 160.563C184.132 161.788 184.695 162.931 185.616 163.742C186.537 164.552 187.743 164.964 188.967 164.886C190.191 164.808 191.335 164.247 192.146 163.327L200.837 153.441V178.229C200.837 179.458 201.324 180.636 202.193 181.504C203.061 182.373 204.238 182.86 205.466 182.86C206.694 182.86 207.872 182.373 208.74 181.504C209.608 180.636 210.096 179.458 210.096 178.229V154.085L217.597 163.21C218.377 164.158 219.502 164.758 220.724 164.878C221.946 164.997 223.165 164.625 224.113 163.845C225.062 163.065 225.662 161.94 225.781 160.718C225.9 159.495 225.529 158.275 224.749 157.327L224.749 157.327Z" fill="white"/>
<path d="M407.754 446.385L400.771 446.384L397.45 419.441L407.756 419.441L407.754 446.385Z" fill="#A0616A"/>
<path d="M408 453.671L386.527 453.671V453.399C386.527 451.182 387.408 449.055 388.975 447.487C390.542 445.919 392.668 445.038 394.885 445.038H394.885L398.808 442.062L406.126 445.039L408 445.039L408 453.671Z" fill="#2F2E41"/>
<path d="M355.285 446.385L348.303 446.384L344.981 419.441L355.287 419.441L355.285 446.385Z" fill="#A0616A"/>
<path d="M355.531 453.671L334.058 453.671V453.399C334.058 451.182 334.939 449.055 336.506 447.487C338.074 445.919 340.199 445.038 342.416 445.038H342.417L346.339 442.062L353.657 445.039L355.532 445.039L355.531 453.671Z" fill="#2F2E41"/>
<path d="M409.981 424.085C412.528 422.42 411.052 422.528 411.052 422.528C411.052 422.528 405.356 376.325 401.022 362.323L396.006 294.14C396.006 294.14 395.688 295.5 396.006 292.194C396.325 288.888 398.64 291.204 396.325 288.888C394.01 286.573 392.467 285.393 394.01 283.667C395.553 281.942 399.81 278.45 397.296 276.337C394.782 274.223 389.834 260.438 389.834 260.438L341.609 260.824L343.538 260.438C343.538 260.438 337.518 258.203 340.275 261.113C343.033 264.023 338.732 271.147 337.189 278.094C335.911 283.847 332.117 285.374 337.189 286.584C342.261 287.795 337.671 291.224 337.671 291.224C337.671 291.224 330.035 327.589 335.822 351.517C335.822 351.517 339.814 410.697 341.835 415.787C343.856 420.876 344.628 417.789 343.856 420.876C343.084 423.964 341.541 418.561 343.084 423.964C343.927 426.786 344.593 429.658 345.081 432.562L355.545 431.79C355.545 431.79 357.976 424.128 355.545 422.116C353.115 420.104 354.793 425.975 357.426 421.496C360.06 417.017 356.973 418.561 356.202 412.386C355.43 406.211 362.509 377.445 357.426 359.796L366.819 310.271L381.732 361.551C381.732 361.551 389.642 424.18 392.212 426.387C394.782 428.595 393.744 423.237 394.782 428.595C395.83 434.009 398.213 432.574 398.145 433.238C397.427 440.317 409.981 433.334 409.981 433.334C409.858 431.535 409.858 429.73 409.981 427.931C410.214 426.279 407.433 425.751 409.981 424.085Z" fill="#2F2E41"/>
<path d="M346.448 276.55C343.362 276.55 334.874 272.369 336.417 270.6C337.96 268.832 337.96 262.961 337.96 261.265C337.96 259.569 344.905 197.049 344.905 197.049L344.377 181.741C344.346 180.823 344.499 179.909 344.828 179.052C345.157 178.195 345.656 177.413 346.293 176.752C346.931 176.092 347.695 175.567 348.54 175.208C349.385 174.85 350.293 174.665 351.211 174.665L358.022 172.349L377.312 171.577L386.931 174.665C387.885 174.665 388.824 174.91 389.656 175.376C390.489 175.843 391.188 176.516 391.686 177.33C392.185 178.144 392.466 179.072 392.503 180.026C392.54 180.98 392.332 181.928 391.898 182.778C397.002 191.114 399.564 200.759 399.269 210.53C399.048 217.841 395.345 226.769 394.453 235.028C394.375 235.752 394.318 236.472 394.287 237.185C394.279 237.384 392.699 238.375 394.265 237.78C395.83 237.185 393.426 239.285 394.242 240.551C395.059 241.817 396.641 241.041 394.307 242.587C391.972 244.132 397.11 259.061 396.602 259.569C395.059 261.113 391.972 261.885 394.287 264.2C396.602 266.516 398.917 264.972 395.83 268.06C392.744 271.147 383.497 276.55 383.497 276.55L346.448 276.55Z" fill="#3F3D56"/>
<path d="M367.076 162.614C376.248 162.614 383.683 155.176 383.683 146.001C383.683 136.826 376.248 129.389 367.076 129.389C357.904 129.389 350.469 136.826 350.469 146.001C350.469 155.176 357.904 162.614 367.076 162.614Z" fill="#A0616A"/>
<path d="M265.927 197.546C266.724 197.193 267.588 197.02 268.459 197.038C269.329 197.056 270.186 197.265 270.967 197.65C271.748 198.034 272.436 198.586 272.981 199.265C273.527 199.945 273.916 200.735 274.123 201.582L295.201 203.576L288.306 212.153L269.347 208.944C267.903 209.197 266.416 208.911 265.168 208.141C263.92 207.371 262.998 206.169 262.576 204.764C262.155 203.359 262.263 201.849 262.88 200.518C263.498 199.188 264.582 198.13 265.927 197.546V197.546Z" fill="#A0616A"/>
<path d="M365.864 185.179C365.379 182.43 363.955 179.934 361.837 178.117C359.718 176.299 357.036 175.272 354.245 175.211C348.05 175.077 345.74 177.145 344.905 180.068C343.362 185.471 318.519 204.463 318.519 204.463L297.183 202.154C295.9 201.737 296.508 200.568 291.685 201.558C289.309 200.002 287.772 200.265 286.449 200.992L278.547 200.136L279.319 212.486C279.319 212.486 287.778 210.473 289.35 214.03C290.921 217.586 290.562 218.097 293.979 215.573C297.397 213.049 297.066 215.573 297.066 215.573L321.757 221.748L360.392 197.511C362.428 196.234 364.036 194.378 365.011 192.181C365.986 189.984 366.283 187.546 365.864 185.179H365.864Z" fill="#3F3D56"/>
<path d="M373.523 160.833L374.611 161.18C371.208 161.466 365.144 163.365 365.738 162.315C366.332 161.265 364.086 157.306 365.182 156.804C366.321 156.404 367.337 155.715 368.13 154.805C368.824 153.832 368.809 152.227 367.767 151.632C366.756 151.046 365.506 151.679 364.503 152.273C363.492 152.86 361.625 144.23 362.103 141.536C359.287 139.993 355.877 142.949 352.713 142.37C350.776 142.015 349.38 140.425 348.5 138.619C349.937 137.255 351.007 135.551 351.61 133.664C350.267 134.34 348.832 134.816 347.35 135.076C347.085 133.675 347.122 132.232 347.458 130.846C347.717 129.74 348.244 128.714 348.994 127.86C349.744 127.007 350.693 126.351 351.756 125.953C352.836 125.595 354.004 125.615 355.07 126.011C356.136 126.407 357.036 127.154 357.62 128.129C357.686 127.079 357.416 126.034 356.851 125.147C356.285 124.259 355.452 123.574 354.472 123.189C355.187 122.818 355.978 122.617 356.784 122.603C357.589 122.588 358.387 122.759 359.115 123.104C359.844 123.448 360.482 123.956 360.982 124.588C361.482 125.22 361.828 125.959 361.995 126.748C365.48 125.001 369.478 124.573 373.253 125.544C376.988 126.524 381.941 130.669 381.941 130.669C390.367 132.529 389.966 164.577 373.523 160.833Z" fill="#2F2E41"/>
<path d="M461.506 447.047C461.698 447.056 461.889 447.006 462.051 446.903C462.214 446.8 462.341 446.649 462.415 446.472C462.489 446.294 462.507 446.098 462.466 445.91C462.425 445.722 462.328 445.551 462.186 445.42L462.122 445.164L462.148 445.103C462.341 444.645 462.666 444.255 463.08 443.982C463.495 443.708 463.981 443.563 464.478 443.565C464.975 443.566 465.46 443.715 465.872 443.992C466.285 444.269 466.607 444.661 466.797 445.12C467.557 446.952 468.525 448.787 468.764 450.725C468.869 451.581 468.825 452.449 468.633 453.29C470.419 449.393 471.346 445.157 471.352 440.869C471.353 439.794 471.293 438.719 471.173 437.649C471.074 436.773 470.937 435.903 470.762 435.039C469.805 430.351 467.749 425.957 464.765 422.217C463.32 421.429 462.152 420.217 461.418 418.744C461.152 418.214 460.964 417.649 460.859 417.065C461.176 416.23 461.342 415.345 461.351 414.452C461.578 414.107 461.984 413.936 462.232 413.6C463.466 411.927 465.165 412.219 466.052 414.492C467.948 415.449 467.966 417.036 466.803 418.562C466.063 419.533 465.962 420.847 465.312 421.886C465.379 421.972 465.449 422.054 465.515 422.14C466.736 423.71 467.8 425.396 468.692 427.174C468.475 425.183 468.734 423.168 469.448 421.295C470.171 419.551 471.526 418.081 472.719 416.573C473.035 416.168 473.464 415.865 473.951 415.704C474.439 415.542 474.963 415.529 475.458 415.665C475.953 415.802 476.397 416.082 476.732 416.471C477.068 416.859 477.281 417.339 477.345 417.848L477.352 417.915C477.175 418.015 477.001 418.121 476.832 418.234C476.618 418.376 476.453 418.58 476.357 418.818C476.262 419.056 476.24 419.318 476.296 419.568C476.351 419.819 476.481 420.046 476.668 420.222C476.856 420.397 477.091 420.512 477.345 420.551L477.371 420.555C477.308 421.194 477.196 421.828 477.037 422.45C478.568 428.373 475.263 430.53 470.543 430.627C470.439 430.68 470.337 430.734 470.233 430.785C471.129 433.325 471.691 435.971 471.905 438.657C472.026 440.241 472.019 441.833 471.884 443.416L471.892 443.36C472.234 441.599 473.173 440.011 474.55 438.863C476.595 437.182 479.485 436.563 481.692 435.212C481.926 435.061 482.199 434.981 482.478 434.98C482.756 434.979 483.03 435.058 483.265 435.208C483.5 435.357 483.688 435.571 483.805 435.824C483.923 436.076 483.967 436.357 483.93 436.634L483.921 436.693C483.592 436.827 483.272 436.981 482.962 437.155C482.785 437.255 482.611 437.361 482.441 437.474C482.228 437.616 482.063 437.82 481.967 438.058C481.872 438.296 481.85 438.558 481.906 438.808C481.961 439.059 482.091 439.286 482.278 439.462C482.465 439.637 482.701 439.752 482.955 439.791L482.981 439.795L483.034 439.803C482.472 441.146 481.683 442.381 480.702 443.456C479.745 448.627 475.633 449.117 471.235 447.611H471.232C470.75 449.709 470.05 451.751 469.146 453.704H461.693C461.666 453.621 461.642 453.536 461.618 453.453C462.308 453.496 463 453.455 463.68 453.33C463.127 452.651 462.574 451.967 462.021 451.288C462.009 451.276 461.997 451.262 461.987 451.248C461.706 450.901 461.423 450.556 461.143 450.209L461.142 450.208C461.127 449.144 461.25 448.081 461.506 447.048L461.506 447.047Z" fill="#F2F2F2"/>
<path d="M213.369 454.763L514.081 455C514.325 455 514.559 454.903 514.731 454.731C514.903 454.559 515 454.325 515 454.081C515 453.837 514.903 453.603 514.731 453.431C514.559 453.259 514.325 453.162 514.081 453.162L213.369 452.925C213.126 452.925 212.892 453.022 212.72 453.194C212.547 453.366 212.451 453.6 212.451 453.844C212.451 454.088 212.547 454.321 212.72 454.494C212.892 454.666 213.126 454.763 213.369 454.763Z" fill="#CACACA"/>
<path d="M198.006 325.949C195.848 325.949 193.738 325.309 191.943 324.109C190.148 322.909 188.749 321.204 187.923 319.209C187.097 317.214 186.88 315.019 187.302 312.901C187.723 310.783 188.762 308.837 190.289 307.31C191.815 305.784 193.76 304.744 195.877 304.322C197.994 303.901 200.189 304.117 202.183 304.944C204.178 305.77 205.882 307.169 207.082 308.965C208.281 310.761 208.921 312.871 208.921 315.031C208.918 317.926 207.767 320.701 205.721 322.748C203.674 324.795 200.9 325.946 198.006 325.949ZM198.006 305.656C196.153 305.656 194.341 306.206 192.8 307.236C191.259 308.266 190.058 309.73 189.348 311.443C188.639 313.156 188.453 315.041 188.815 316.86C189.177 318.678 190.069 320.349 191.38 321.66C192.69 322.971 194.36 323.864 196.178 324.225C197.996 324.587 199.88 324.401 201.593 323.692C203.305 322.982 204.769 321.781 205.799 320.239C206.828 318.698 207.378 316.885 207.378 315.031C207.375 312.545 206.387 310.163 204.63 308.405C202.873 306.648 200.491 305.659 198.006 305.656Z" fill="#F2F2F2"/>
<path d="M202.279 314.52L198.894 310.403C198.802 310.291 198.687 310.201 198.557 310.138C198.427 310.075 198.285 310.041 198.14 310.039C197.995 310.036 197.852 310.065 197.72 310.124C197.588 310.182 197.47 310.269 197.374 310.377L193.755 314.495C193.582 314.694 193.494 314.953 193.512 315.217C193.53 315.48 193.651 315.725 193.849 315.899C194.047 316.074 194.305 316.162 194.569 316.146C194.832 316.13 195.078 316.01 195.253 315.813L197.126 313.683V319.025C197.126 319.29 197.231 319.543 197.418 319.731C197.605 319.918 197.859 320.023 198.124 320.023C198.388 320.023 198.642 319.918 198.829 319.731C199.016 319.543 199.121 319.29 199.121 319.025V313.822L200.738 315.788C200.906 315.992 201.148 316.122 201.412 316.147C201.675 316.173 201.938 316.093 202.142 315.925C202.346 315.757 202.476 315.514 202.501 315.251C202.527 314.988 202.447 314.725 202.279 314.52H202.279Z" fill="#F2F2F2"/>
<path d="M322.234 164.631C320.075 164.631 317.965 163.99 316.17 162.791C314.375 161.591 312.976 159.886 312.15 157.891C311.324 155.895 311.107 153.7 311.529 151.582C311.95 149.464 312.989 147.519 314.516 145.992C316.042 144.465 317.987 143.425 320.104 143.004C322.221 142.582 324.416 142.799 326.41 143.625C328.405 144.451 330.109 145.851 331.309 147.646C332.508 149.442 333.148 151.553 333.148 153.712C333.145 156.607 331.994 159.382 329.948 161.429C327.902 163.476 325.127 164.627 322.234 164.631ZM322.234 144.338C320.38 144.338 318.568 144.887 317.027 145.918C315.486 146.948 314.285 148.412 313.575 150.125C312.866 151.838 312.681 153.723 313.042 155.541C313.404 157.36 314.296 159.03 315.607 160.341C316.918 161.652 318.587 162.545 320.405 162.907C322.223 163.269 324.107 163.083 325.82 162.373C327.532 161.664 328.996 160.462 330.026 158.921C331.055 157.379 331.605 155.566 331.605 153.712C331.602 151.227 330.614 148.844 328.857 147.086C327.1 145.329 324.718 144.34 322.234 144.338V144.338Z" fill="#F2F2F2"/>
<path d="M326.507 153.202L323.122 149.084C323.03 148.972 322.915 148.882 322.785 148.819C322.654 148.756 322.512 148.723 322.368 148.72C322.223 148.718 322.08 148.747 321.947 148.805C321.815 148.864 321.697 148.95 321.602 149.059L317.982 153.176C317.809 153.375 317.722 153.635 317.74 153.898C317.757 154.161 317.878 154.407 318.076 154.581C318.274 154.755 318.533 154.844 318.796 154.828C319.059 154.811 319.305 154.692 319.481 154.495L321.353 152.364V157.706C321.353 157.971 321.458 158.225 321.646 158.412C321.833 158.599 322.086 158.704 322.351 158.704C322.616 158.704 322.869 158.599 323.057 158.412C323.244 158.225 323.349 157.971 323.349 157.706V152.503L324.965 154.469C325.133 154.674 325.376 154.803 325.639 154.829C325.902 154.855 326.165 154.775 326.37 154.606C326.574 154.438 326.703 154.196 326.729 153.932C326.754 153.669 326.674 153.406 326.506 153.202L326.507 153.202Z" fill="#F2F2F2"/>
<path d="M76.0939 155.368C73.9352 155.368 71.8249 154.728 70.03 153.528C68.2351 152.328 66.8361 150.623 66.01 148.628C65.1839 146.633 64.9678 144.438 65.3889 142.32C65.8101 140.202 66.8496 138.256 68.376 136.73C69.9025 135.203 71.8473 134.163 73.9645 133.741C76.0817 133.32 78.2763 133.536 80.2707 134.363C82.2651 135.189 83.9697 136.589 85.1691 138.384C86.3684 140.18 87.0085 142.29 87.0085 144.45C87.0052 147.345 85.8542 150.12 83.8081 152.167C81.7619 154.214 78.9876 155.365 76.0939 155.368ZM76.0939 135.075C74.2404 135.075 72.4285 135.625 70.8873 136.655C69.3462 137.685 68.1451 139.149 67.4358 140.862C66.7264 142.575 66.5409 144.46 66.9025 146.279C67.2641 148.097 68.1566 149.768 69.4672 151.079C70.7779 152.39 72.4477 153.283 74.2656 153.644C76.0835 154.006 77.9678 153.821 79.6802 153.111C81.3926 152.401 82.8562 151.2 83.8859 149.658C84.9157 148.117 85.4653 146.304 85.4653 144.45C85.4625 141.964 84.4743 139.582 82.7174 137.824C80.9606 136.067 78.5785 135.078 76.0939 135.075V135.075Z" fill="#F2F2F2"/>
<path d="M80.3664 143.939L76.9815 139.822C76.8897 139.71 76.7747 139.62 76.6445 139.557C76.5143 139.494 76.372 139.46 76.2275 139.458C76.0829 139.455 75.9396 139.484 75.8074 139.543C75.6751 139.601 75.5572 139.688 75.4617 139.797L71.842 143.914C71.669 144.113 71.5818 144.373 71.5994 144.636C71.617 144.899 71.7381 145.144 71.936 145.319C72.134 145.493 72.3929 145.581 72.656 145.565C72.9192 145.549 73.1652 145.429 73.3404 145.232L75.2132 143.102V148.444C75.2132 148.709 75.3183 148.962 75.5054 149.15C75.6925 149.337 75.9463 149.442 76.2109 149.442C76.4755 149.442 76.7293 149.337 76.9164 149.15C77.1035 148.962 77.2086 148.709 77.2086 148.444V143.241L78.8251 145.207C78.9932 145.412 79.2356 145.541 79.4989 145.567C79.7623 145.592 80.0251 145.512 80.2294 145.344C80.4338 145.176 80.563 144.934 80.5887 144.67C80.6144 144.407 80.5344 144.144 80.3663 143.939L80.3664 143.939Z" fill="#F2F2F2"/>
<path d="M163.284 21.8367C161.126 21.8367 159.015 21.1963 157.22 19.9966C155.426 18.7969 154.027 17.0917 153.2 15.0966C152.374 13.1015 152.158 10.9062 152.579 8.78829C153 6.67034 154.04 4.72487 155.566 3.19792C157.093 1.67096 159.038 0.631088 161.155 0.209801C163.272 -0.211486 165.467 0.0047232 167.461 0.831106C169.456 1.65749 171.16 3.05693 172.359 4.85244C173.559 6.64795 174.199 8.7589 174.199 10.9183C174.196 13.8131 173.045 16.5883 170.998 18.6351C168.952 20.682 166.178 21.8334 163.284 21.8367ZM163.284 1.54374C161.431 1.54373 159.619 2.09355 158.078 3.12365C156.537 4.15374 155.335 5.61785 154.626 7.33084C153.917 9.04383 153.731 10.9288 154.093 12.7473C154.455 14.5658 155.347 16.2362 156.658 17.5472C157.968 18.8583 159.638 19.7511 161.456 20.1129C163.274 20.4746 165.158 20.2889 166.871 19.5794C168.583 18.8698 170.047 17.6683 171.076 16.1266C172.106 14.585 172.656 12.7725 172.656 10.9183C172.653 8.43289 171.665 6.05002 169.908 4.29253C168.151 2.53504 165.769 1.54648 163.284 1.54372V1.54374Z" fill="#F2F2F2"/>
<path d="M167.557 10.4077L164.172 6.29016C164.081 6.17848 163.966 6.08808 163.835 6.02524C163.705 5.9624 163.563 5.92862 163.418 5.92622C163.274 5.92383 163.13 5.95288 162.998 6.01138C162.866 6.06987 162.748 6.1564 162.653 6.26498L159.033 10.3825C158.86 10.5815 158.773 10.8409 158.79 11.1041C158.808 11.3672 158.929 11.6127 159.127 11.7869C159.325 11.961 159.584 12.0497 159.847 12.0336C160.11 12.0174 160.356 11.8978 160.531 11.7007L162.404 9.57037V14.9123C162.404 15.177 162.509 15.4308 162.696 15.618C162.883 15.8052 163.137 15.9103 163.402 15.9103C163.666 15.9103 163.92 15.8052 164.107 15.618C164.294 15.4308 164.4 15.177 164.4 14.9123V9.70911L166.016 11.6755C166.184 11.88 166.426 12.0093 166.69 12.035C166.953 12.0606 167.216 11.9806 167.42 11.8125C167.625 11.6444 167.754 11.4019 167.78 11.1385C167.805 10.875 167.725 10.6122 167.557 10.4077L167.557 10.4077Z" fill="#F2F2F2"/>
<path d="M46.773 236.414C44.6142 236.414 42.5039 235.773 40.7089 234.574C38.9139 233.374 37.5149 231.669 36.6888 229.673C35.8626 227.678 35.6465 225.483 36.0676 223.365C36.4888 221.247 37.5283 219.301 39.0548 217.774C40.5813 216.247 42.5261 215.208 44.6434 214.786C46.7607 214.365 48.9553 214.581 50.9498 215.408C52.9442 216.234 54.6489 217.634 55.8482 219.429C57.0475 221.225 57.6876 223.336 57.6876 225.495C57.6843 228.39 56.5333 231.165 54.4872 233.212C52.441 235.259 49.6667 236.41 46.773 236.414ZM46.773 216.12C44.9194 216.12 43.1075 216.67 41.5663 217.7C40.0251 218.73 38.8239 220.194 38.1146 221.907C37.4052 223.62 37.2196 225.505 37.5812 227.324C37.9427 229.142 38.8352 230.813 40.1459 232.124C41.4565 233.435 43.1264 234.328 44.9443 234.69C46.7622 235.051 48.6465 234.866 50.359 234.156C52.0714 233.447 53.5351 232.245 54.5649 230.704C55.5947 229.162 56.1444 227.349 56.1444 225.495C56.1417 223.01 55.1534 220.627 53.3966 218.869C51.6397 217.112 49.2576 216.123 46.773 216.12Z" fill="white"/>
<path d="M51.0456 224.985L47.6607 220.867C47.5689 220.755 47.4539 220.665 47.3237 220.602C47.1935 220.539 47.0512 220.505 46.9067 220.503C46.7621 220.501 46.6188 220.53 46.4866 220.588C46.3543 220.647 46.2364 220.733 46.1409 220.842L42.5212 224.959C42.3482 225.158 42.261 225.418 42.2786 225.681C42.2962 225.944 42.4173 226.19 42.6152 226.364C42.8132 226.538 43.0721 226.627 43.3352 226.61C43.5984 226.594 43.8444 226.475 44.0196 226.278L45.8924 224.147V229.489C45.8924 229.754 45.9975 230.008 46.1846 230.195C46.3717 230.382 46.6255 230.487 46.8901 230.487C47.1547 230.487 47.4085 230.382 47.5956 230.195C47.7827 230.008 47.8878 229.754 47.8878 229.489V224.286L49.5043 226.252C49.6724 226.457 49.9148 226.586 50.1781 226.612C50.4415 226.637 50.7042 226.557 50.9086 226.389C51.113 226.221 51.2422 225.979 51.2679 225.715C51.2936 225.452 51.2136 225.189 51.0455 224.985L51.0456 224.985Z" fill="white"/>
<path d="M282.882 53.4829C280.724 53.483 278.613 52.8426 276.818 51.6429C275.023 50.4432 273.624 48.7379 272.798 46.7428C271.972 44.7477 271.756 42.5524 272.177 40.4344C272.598 38.3164 273.638 36.3708 275.164 34.8438C276.691 33.3168 278.635 32.277 280.753 31.8557C282.87 31.4344 285.065 31.6506 287.059 32.477C289.054 33.3035 290.758 34.7029 291.958 36.4985C293.157 38.2941 293.797 40.4051 293.797 42.5646C293.794 45.4593 292.643 48.2345 290.596 50.2814C288.55 52.3283 285.776 53.4796 282.882 53.4829ZM282.882 33.1896C281.029 33.1896 279.217 33.7393 277.676 34.7694C276.134 35.7995 274.933 37.2636 274.224 38.9767C273.515 40.6897 273.329 42.5746 273.691 44.3932C274.052 46.2117 274.945 47.8821 276.255 49.1933C277.566 50.5044 279.236 51.3973 281.054 51.759C282.872 52.1208 284.756 51.9352 286.468 51.2257C288.181 50.5162 289.644 49.3146 290.674 47.7729C291.704 46.2313 292.254 44.4188 292.254 42.5646C292.251 40.0791 291.263 37.6962 289.506 35.9386C287.749 34.1811 285.367 33.1924 282.882 33.1896Z" fill="white"/>
<path d="M287.155 42.0539L283.77 37.9364C283.678 37.8247 283.563 37.7343 283.433 37.6715C283.303 37.6086 283.161 37.5749 283.016 37.5725C282.871 37.5701 282.728 37.5991 282.596 37.6576C282.464 37.7161 282.346 37.8026 282.25 37.9112L278.631 42.0287C278.458 42.2278 278.37 42.4872 278.388 42.7503C278.406 43.0135 278.527 43.259 278.725 43.4331C278.923 43.6073 279.181 43.696 279.445 43.6798C279.708 43.6637 279.954 43.544 280.129 43.3469L282.002 41.2166V46.5586C282.002 46.8232 282.107 47.0771 282.294 47.2642C282.481 47.4514 282.735 47.5566 282.999 47.5566C283.264 47.5566 283.518 47.4514 283.705 47.2642C283.892 47.0771 283.997 46.8232 283.997 46.5586V41.3553L285.614 43.3218C285.782 43.5262 286.024 43.6555 286.288 43.6812C286.551 43.7069 286.814 43.6269 287.018 43.4587C287.222 43.2906 287.352 43.0481 287.377 42.7847C287.403 42.5212 287.323 42.2584 287.155 42.0539L287.155 42.0539Z" fill="white"/>
</svg>
