<svg width="256" height="256" viewBox="0 0 256 256" fill="none" xmlns="http://www.w3.org/2000/svg">
<mask id="mask0_31_140" style="mask-type:alpha" maskUnits="userSpaceOnUse" x="0" y="0" width="256" height="256">
<circle cx="128" cy="128" r="128" fill="#C4C4C4"/>
</mask>
<g mask="url(#mask0_31_140)">
<path d="M-34.2579 61.8815C-34.2579 61.8815 18.7693 52.0586 32.451 17.679C45.5357 -15.2776 99.4355 -24.1362 99.4355 -24.1362" stroke="white" stroke-width="8" stroke-miterlimit="10"/>
<path d="M-34.2579 78.4053C-34.2579 78.4053 30.7982 67.0681 47.5558 25.5739C63.5329 -14.0383 129.599 -24.1362 129.599 -24.1362" stroke="white" stroke-width="8" stroke-miterlimit="10"/>
<path d="M-34.2579 94.9756C-34.2579 94.9756 42.781 82.0776 62.6147 33.5607C81.5301 -12.8447 159.763 -24.1362 159.763 -24.1362" stroke="white" stroke-width="8" stroke-miterlimit="10"/>
<path d="M-34.2579 111.5C-34.2579 111.5 54.8098 97.0871 77.7194 41.4557C99.5273 -11.6054 189.926 -24.1362 189.926 -24.1362" stroke="white" stroke-width="8" stroke-miterlimit="10"/>
<path d="M-34.2579 128.024C-34.2579 128.024 66.8385 112.097 92.8242 49.3963C117.524 -10.366 220.044 -24.1362 220.044 -24.1362" stroke="white" stroke-width="8" stroke-miterlimit="10"/>
<path d="M-34.2579 144.594C-34.2579 144.594 78.8213 127.152 107.883 57.337C135.567 -9.17278 250.208 -24.1362 250.208 -24.1362" stroke="white" stroke-width="8" stroke-miterlimit="10"/>
<path d="M-34.2579 161.118C-34.2579 161.118 90.85 142.115 122.988 65.278C153.565 -7.93345 280.371 -24.1362 280.371 -24.1362" stroke="white" stroke-width="8" stroke-miterlimit="10"/>
<path d="M-34.2579 177.642C-34.2579 177.642 102.879 157.125 138.047 73.173C171.562 -6.69411 310.535 -24.1362 310.535 -24.1362" stroke="white" stroke-width="8" stroke-miterlimit="10"/>
<path d="M-34.2579 194.213C-34.2579 194.213 114.861 172.18 153.151 81.1594C189.559 -5.50083 340.653 -24.1362 340.653 -24.1362" stroke="white" stroke-width="8" stroke-miterlimit="10"/>
<path d="M-34.2579 210.736C-34.2579 210.736 126.89 187.19 168.211 89.1004C207.556 -4.26149 370.817 -24.1362 370.817 -24.1362" stroke="white" stroke-width="8" stroke-miterlimit="10"/>
<path d="M-34.2579 227.306C-34.2579 227.306 138.919 202.199 183.315 97.0411C225.554 -3.02218 400.98 -24.1362 400.98 -24.1362" stroke="white" stroke-width="8" stroke-miterlimit="10"/>
<path d="M-34.2579 243.832C-34.2579 243.832 150.902 217.209 198.374 104.982C243.551 -1.82856 431.143 -24.1362 431.143 -24.1362" stroke="white" stroke-width="8" stroke-miterlimit="10"/>
<path d="M-34.2579 260.354C-34.2579 260.354 162.931 232.218 213.479 112.877C261.548 -0.589238 461.307 -24.1362 461.307 -24.1362" stroke="white" stroke-width="8" stroke-miterlimit="10"/>
<path d="M-34.2579 276.924C-34.2579 276.924 174.96 247.228 228.584 120.863C279.545 0.650102 491.425 -24.1362 491.425 -24.1362" stroke="white" stroke-width="8" stroke-miterlimit="10"/>
<path d="M-34.2579 293.45C-34.2579 293.45 186.942 262.238 243.643 128.758C297.543 1.84337 521.589 -24.1362 521.589 -24.1362" stroke="white" stroke-width="8" stroke-miterlimit="10"/>
<path d="M-34.2579 309.975C-34.2579 309.975 198.971 277.247 258.747 136.699C315.539 3.08272 551.752 -24.1362 551.752 -24.1362" stroke="white" stroke-width="8" stroke-miterlimit="10"/>
<path d="M-34.2579 326.545C-34.2579 326.545 211 292.301 273.806 144.64C333.537 4.32205 581.916 -24.1362 581.916 -24.1362" stroke="white" stroke-width="8" stroke-miterlimit="10"/>
<path d="M-34.2579 343.068C-34.2579 343.068 222.983 307.266 288.911 152.581C351.534 5.5153 612.035 -24.1362 612.035 -24.1362" stroke="white" stroke-width="8" stroke-miterlimit="10"/>
</g>
</svg>
