<svg id="Layer_1" data-name="Layer 1" xmlns="http://www.w3.org/2000/svg" viewBox="0 0 59.58 75.61"><path d="M70.46,136.89c-4.2-3.83-2.39-6.81,1.25-9.72,4.26-3.4,7.32-7.4,6.26-13.4-1.26-7.11,2.51-11.77,8.7-16L91.46,103c-6.1,3.65-6.61,9.07-6,14.85a11.44,11.44,0,0,1-4.28,10.41c-3.09,2.67-5.81,5.77-8.69,8.68Z" transform="translate(-68.04 -61.29)"/><path d="M110.48,65.12,124.66,79.3l-27,26.93c-4.72-5-9.51-10.15-13.92-14.86Z" transform="translate(-68.04 -61.29)"/><path d="M121.55,73.13l-6-5.86a85.38,85.38,0,0,1,8.9-6c.37-.2,3.45,3.08,3.17,3.61C126.13,67.63,124,70,121.55,73.13Z" transform="translate(-68.04 -61.29)"/></svg>