<svg id="Layer_1" data-name="Layer 1" xmlns="http://www.w3.org/2000/svg" viewBox="0 0 108.8 50.79"><defs><style>.cls-1{fill:#fff;}</style></defs><path class="cls-1" d="M153.57,105.85l-1.48.07c-1.12,2.72-2.59,5.36-3.2,8.18a5.8,5.8,0,0,0,1.63,4.67c.89.79,3.57.9,4.36.14a6.48,6.48,0,0,0,1.93-5C156.27,111.13,154.7,108.53,153.57,105.85Z" transform="translate(-48.22 -82.27)"/><path d="M48.22,83c6.7-.93,16.39,4,19.74,9.86.65,1.14,2,2.65,3,2.68,6.59.2,13.19,0,19.79,0,.33,0,.66-.57,1.49-1.34a24,24,0,0,0-3.44-.83c-5.22-.38-7.62-4.1-5.43-8.94a4.59,4.59,0,0,1,3.45-2c4.61-.23,9.24,0,13.86-.14,4.27-.15,4.17,2.62,4.21,5.64s-.13,5.78-4.34,5.43a8.4,8.4,0,0,0-4.11.86c7.68,4.12,17.45-2.1,25.58,5.07,6.11-3.76,13-8.61,20.46-12.35,3.57-1.78,8.16-1.58,12.31-2,.66-.07,1.47,1.35,2.21,2.08-.82.65-1.76,2-2.45,1.84-5-.89-6.8,2.73-9.06,6-7.95,11.66-15.92,23.31-24.16,34.76a8.61,8.61,0,0,1-6,3.2c-15,.27-30,.07-45.07.21-3.49,0-4.68-1.3-4.59-4.69.15-6-.19-12,.12-18,.18-3.49-1.17-5.09-4.27-6.15-4.52-1.54-8.91-3.47-13.35-5.23Zm22.14,17.15v28.53c15,0,29.66.09,44.32-.13,1.41,0,3.17-1.57,4.12-2.89,5.33-7.4,10.48-14.94,15.66-22.45,2-2.91,3.94-5.87,5.9-8.8a5.42,5.42,0,0,0-3.55.94c-5.22,3.2-10.4,6.44-15.62,9.63-4,2.42-4.89,1.92-5.44-2.91-.07-.61-.24-1.22-.39-1.92ZM53,88.42c-1.4,8.42.56,10.32,12.28,12C65.12,92.86,61.73,89.56,53,88.42Zm35-1v1.09h12.35V87.4Z" transform="translate(-48.22 -82.27)"/><path d="M153.57,105.85c1.13,2.68,2.7,5.28,3.24,8.08a6.48,6.48,0,0,1-1.93,5c-.79.76-3.47.65-4.36-.14a5.8,5.8,0,0,1-1.63-4.67c.61-2.82,2.08-5.46,3.2-8.18Z" transform="translate(-48.22 -82.27)"/><path class="cls-1" d="M70.36,100.15h45c.15.7.32,1.31.39,1.92.55,4.83,1.45,5.33,5.44,2.91,5.22-3.19,10.4-6.43,15.62-9.63a5.42,5.42,0,0,1,3.55-.94c-2,2.93-3.89,5.89-5.9,8.8-5.18,7.51-10.33,15.05-15.66,22.45-1,1.32-2.71,2.87-4.12,2.89-14.66.22-29.31.13-44.32.13Z" transform="translate(-48.22 -82.27)"/><path class="cls-1" d="M53,88.42c8.74,1.14,12.13,4.44,12.28,12C53.55,98.74,51.59,96.84,53,88.42Z" transform="translate(-48.22 -82.27)"/><path class="cls-1" d="M88,87.4H100.3v1.09H87.94Z" transform="translate(-48.22 -82.27)"/></svg>