<?xml version="1.0" encoding="iso-8859-1"?>
<!-- Generator: Adobe Illustrator 17.1.0, SVG Export Plug-In . SVG Version: 6.00 Build 0)  -->
<!DOCTYPE svg PUBLIC "-//W3C//DTD SVG 1.1//EN" "http://www.w3.org/Graphics/SVG/1.1/DTD/svg11.dtd">
<svg version="1.1" id="Capa_1" xmlns="http://www.w3.org/2000/svg" xmlns:xlink="http://www.w3.org/1999/xlink" x="0px" y="0px"
	 viewBox="0 0 476.107 476.107" style="enable-background:new 0 0 476.107 476.107;" xml:space="preserve">
<path d="M312.226,107.062c4.421,10.177,6.663,21.005,6.663,32.183c0,44.572-36.263,80.835-80.835,80.835
	s-80.835-36.263-80.835-80.835s36.263-80.835,80.835-80.835c14.991,0,29.63,4.136,42.334,11.961
	c3.527,2.172,4.626,6.792,2.453,10.318c-2.173,3.528-6.792,4.628-10.319,2.453c-10.338-6.367-22.257-9.732-34.468-9.732
	c-36.302,0-65.835,29.533-65.835,65.835s29.533,65.835,65.835,65.835s65.835-29.533,65.835-65.835
	c0-9.109-1.824-17.927-5.421-26.206c-1.65-3.799,0.092-8.217,3.891-9.867C306.155,101.519,310.575,103.262,312.226,107.062z
	 M377.299,139.244c0,40.795-30.339,130.421-56.319,194.774c-15.226,37.715-30.987,72.136-44.381,96.923
	c-21.449,39.694-31.201,45.166-38.545,45.166c-7.308,0-17.695-5.364-39.333-45.147c-13.401-24.641-29.138-59.075-44.31-96.961
	c-25.65-64.047-55.603-153.482-55.603-194.755C98.809,62.465,161.273,0,238.054,0S377.299,62.465,377.299,139.244z M362.299,139.244
	C362.299,70.735,306.563,15,238.054,15S113.809,70.735,113.809,139.244c0,30.965,21.251,105.33,52.88,185.047
	c14.553,36.678,29.789,70.489,42.903,95.207c17.78,33.513,26.186,40.142,28.351,41.387c2.152-1.375,10.416-8.405,28.115-42.057
	c13.133-24.972,28.38-58.781,42.931-95.201C341.373,242.571,362.299,170.197,362.299,139.244z"/>
<g>
</g>
<g>
</g>
<g>
</g>
<g>
</g>
<g>
</g>
<g>
</g>
<g>
</g>
<g>
</g>
<g>
</g>
<g>
</g>
<g>
</g>
<g>
</g>
<g>
</g>
<g>
</g>
<g>
</g>
</svg>
