<svg width="118" height="122" viewBox="0 0 118 122" fill="none" xmlns="http://www.w3.org/2000/svg">
<path d="M43.3721 10.8052L41.0509 11.7337L43.3721 10.8052ZM49.9173 27.1683L52.2385 26.2398H52.2385L49.9173 27.1683ZM47.9275 39.7287L49.848 41.3292H49.848L47.9275 39.7287ZM44.4049 43.9558L46.3255 45.5562L44.4049 43.9558ZM45.1638 60.6846L43.396 62.4524L45.1638 60.6846ZM57.0654 72.5862L58.8332 70.8185L57.0654 72.5862ZM73.7943 73.3451L72.1938 71.4245H72.1938L73.7943 73.3451ZM78.0213 69.8225L79.6218 71.7431H79.6218L78.0213 69.8225ZM90.5817 67.8327L89.6532 70.1539L90.5817 67.8327ZM106.945 74.3779L107.873 72.0567L106.945 74.3779ZM14.7632 5.5H31.8435V0.5H14.7632V5.5ZM41.0509 11.7337L47.5961 28.0968L52.2385 26.2398L45.6933 9.87676L41.0509 11.7337ZM46.0069 38.1282L42.4844 42.3553L46.3255 45.5562L49.848 41.3292L46.0069 38.1282ZM43.396 62.4524L55.2976 74.354L58.8332 70.8185L46.9315 58.9168L43.396 62.4524ZM75.3947 75.2656L79.6218 71.7431L76.4209 67.902L72.1938 71.4245L75.3947 75.2656ZM89.6532 70.1539L106.016 76.6991L107.873 72.0567L91.5102 65.5115L89.6532 70.1539ZM112.25 85.9065V102.987H117.25V85.9065H112.25ZM102.987 112.25C49.1463 112.25 5.5 68.6037 5.5 14.7632H0.5C0.5 71.3651 46.3849 117.25 102.987 117.25V112.25ZM112.25 102.987C112.25 108.103 108.103 112.25 102.987 112.25V117.25C110.864 117.25 117.25 110.864 117.25 102.987H112.25ZM106.016 76.6991C109.781 78.2051 112.25 81.8515 112.25 85.9065H117.25C117.25 79.807 113.536 74.322 107.873 72.0567L106.016 76.6991ZM79.6218 71.7431C82.42 69.4112 86.2713 68.8011 89.6532 70.1539L91.5102 65.5115C86.4231 63.4767 80.6299 64.3944 76.4209 67.902L79.6218 71.7431ZM55.2976 74.354C60.7529 79.8093 69.4679 80.2046 75.3947 75.2656L72.1938 71.4245C68.2536 74.708 62.4599 74.4452 58.8332 70.8185L55.2976 74.354ZM42.4844 42.3553C37.5454 48.2821 37.9407 56.9971 43.396 62.4524L46.9315 58.9168C43.3048 55.2901 43.042 49.4964 46.3255 45.5562L42.4844 42.3553ZM47.5961 28.0968C48.9489 31.4787 48.3388 35.33 46.0069 38.1282L49.848 41.3292C53.3556 37.1201 54.2733 31.3269 52.2385 26.2398L47.5961 28.0968ZM31.8435 5.5C35.8985 5.5 39.5449 7.96876 41.0509 11.7337L45.6933 9.87676C43.428 4.21352 37.943 0.5 31.8435 0.5V5.5ZM14.7632 0.5C6.88583 0.5 0.5 6.88584 0.5 14.7632H5.5C5.5 9.64726 9.64726 5.5 14.7632 5.5V0.5Z" fill="#ACACAC"/>
<path d="M43.3721 14.8052L41.0509 15.7337L43.3721 14.8052ZM49.9173 31.1683L52.2385 30.2398H52.2385L49.9173 31.1683ZM47.9275 43.7287L49.848 45.3292H49.848L47.9275 43.7287ZM44.4049 47.9558L46.3255 49.5562L44.4049 47.9558ZM45.1638 64.6846L43.396 66.4524L45.1638 64.6846ZM57.0654 76.5862L58.8332 74.8185L57.0654 76.5862ZM73.7943 77.3451L72.1938 75.4245H72.1938L73.7943 77.3451ZM78.0213 73.8225L79.6218 75.7431H79.6218L78.0213 73.8225ZM90.5817 71.8327L89.6532 74.1539L90.5817 71.8327ZM106.945 78.3779L107.873 76.0567L106.945 78.3779ZM14.7632 9.5H31.8435V4.5H14.7632V9.5ZM41.0509 15.7337L47.5961 32.0968L52.2385 30.2398L45.6933 13.8768L41.0509 15.7337ZM46.0069 42.1282L42.4844 46.3553L46.3255 49.5562L49.848 45.3292L46.0069 42.1282ZM43.396 66.4524L55.2976 78.354L58.8332 74.8185L46.9315 62.9168L43.396 66.4524ZM75.3947 79.2656L79.6218 75.7431L76.4209 71.902L72.1938 75.4245L75.3947 79.2656ZM89.6532 74.1539L106.016 80.6991L107.873 76.0567L91.5102 69.5115L89.6532 74.1539ZM112.25 89.9065V106.987H117.25V89.9065H112.25ZM102.987 116.25C49.1463 116.25 5.5 72.6037 5.5 18.7632H0.5C0.5 75.3651 46.3849 121.25 102.987 121.25V116.25ZM112.25 106.987C112.25 112.103 108.103 116.25 102.987 116.25V121.25C110.864 121.25 117.25 114.864 117.25 106.987H112.25ZM106.016 80.6991C109.781 82.2051 112.25 85.8515 112.25 89.9065H117.25C117.25 83.807 113.536 78.322 107.873 76.0567L106.016 80.6991ZM79.6218 75.7431C82.42 73.4112 86.2713 72.8011 89.6532 74.1539L91.5102 69.5115C86.4231 67.4767 80.6299 68.3944 76.4209 71.902L79.6218 75.7431ZM55.2976 78.354C60.7529 83.8093 69.4679 84.2046 75.3947 79.2656L72.1938 75.4245C68.2536 78.708 62.4599 78.4452 58.8332 74.8185L55.2976 78.354ZM42.4844 46.3553C37.5454 52.2821 37.9407 60.9971 43.396 66.4524L46.9315 62.9168C43.3048 59.2901 43.042 53.4964 46.3255 49.5562L42.4844 46.3553ZM47.5961 32.0968C48.9489 35.4787 48.3388 39.33 46.0069 42.1282L49.848 45.3292C53.3556 41.1201 54.2733 35.3269 52.2385 30.2398L47.5961 32.0968ZM31.8435 9.5C35.8985 9.5 39.5449 11.9688 41.0509 15.7337L45.6933 13.8768C43.428 8.21352 37.943 4.5 31.8435 4.5V9.5ZM14.7632 4.5C6.88583 4.5 0.5 10.8858 0.5 18.7632H5.5C5.5 13.6473 9.64726 9.5 14.7632 9.5V4.5Z" fill="#47BF71"/>
</svg>
