<?xml version="1.0" encoding="iso-8859-1"?>
<!-- Generator: Adobe Illustrator 19.0.0, SVG Export Plug-In . SVG Version: 6.00 Build 0)  -->
<svg version="1.1" id="Layer_1" xmlns="http://www.w3.org/2000/svg" xmlns:xlink="http://www.w3.org/1999/xlink" x="0px" y="0px"
	 viewBox="0 0 512 512" style="enable-background:new 0 0 512 512;" xml:space="preserve">
<g>
	<g>
		<path d="M442.072,100.885h-75.987l-0.078-20.781c-0.076-20.184-16.56-36.605-36.744-36.605H182.891
			c-20.302,0-36.82,16.554-36.744,36.883l0.077,20.503H69.928C31.37,100.885,0,132.254,0,170.813v26.024
			c0,14.553,10.791,26.628,24.789,28.658v214.044c0,15.971,12.993,28.962,28.962,28.962h404.498
			c15.97,0,28.962-12.992,28.962-28.962V225.495C501.211,223.465,512,211.39,512,196.837v-26.024
			C512,132.254,480.63,100.885,442.072,100.885z M182.89,76.599h146.372c2.001,0,3.637,1.629,3.644,3.63l0.078,20.657H179.324
			l-0.078-20.628C179.238,78.237,180.87,76.599,182.89,76.599z M454.112,435.401H57.888V226.209h59.488v46.367
			c0,13.52,10.999,24.519,24.519,24.519h34.84c13.519,0,24.518-10.999,24.518-24.519v-46.367h109.492v46.367
			c0,13.52,10.999,24.519,24.518,24.519h34.84c13.519,0,24.518-10.999,24.518-24.519v-46.367h59.489V435.401z M150.478,263.996
			v-37.787h17.676v37.787H150.478z M343.846,263.996v-37.787h17.676v37.787H343.846z M478.9,192.7H33.1v-21.887
			c0-20.307,16.521-36.829,36.828-36.829c3.047,0,288.796,0,296.283,0h75.862c20.307,0,36.828,16.522,36.828,36.829V192.7z"/>
	</g>
</g>
<g>
</g>
<g>
</g>
<g>
</g>
<g>
</g>
<g>
</g>
<g>
</g>
<g>
</g>
<g>
</g>
<g>
</g>
<g>
</g>
<g>
</g>
<g>
</g>
<g>
</g>
<g>
</g>
<g>
</g>
</svg>
