<svg width="59" height="59" viewBox="0 0 59 59" fill="none" xmlns="http://www.w3.org/2000/svg">
<path d="M41.6056 39.7354C47.2477 41.0648 51.2901 44.6521 51.2901 48.8688" stroke="#47BF71" stroke-width="4" stroke-linecap="round" stroke-linejoin="round"/>
<path d="M7.70996 48.8688C7.70996 43.5202 14.2138 39.1843 22.2367 39.1843C30.2595 39.1843 36.7634 43.5202 36.7634 48.8688" stroke="#47BF71" stroke-width="4" stroke-linecap="round" stroke-linejoin="round"/>
<path d="M36.7634 31.9209C42.112 31.9209 46.4479 27.5851 46.4479 22.2365C46.4479 16.8879 42.112 12.552 36.7634 12.552" stroke="#47BF71" stroke-width="4" stroke-linecap="round" stroke-linejoin="round"/>
<path d="M22.2367 31.9209C27.5853 31.9209 31.9212 27.5851 31.9212 22.2365C31.9212 16.8879 27.5853 12.552 22.2367 12.552C16.8881 12.552 12.5522 16.8879 12.5522 22.2365C12.5522 27.5851 16.8881 31.9209 22.2367 31.9209Z" stroke="#47BF71" stroke-width="4" stroke-linecap="round" stroke-linejoin="round"/>
</svg>
