<svg width="59" height="59" viewBox="0 0 59 59" fill="none" xmlns="http://www.w3.org/2000/svg">
<path d="M7.72949 46.4476C7.72949 41.0991 14.2333 36.7632 22.2562 36.7632C30.2791 36.7632 36.7829 41.0991 36.7829 46.4476" stroke="#47BF71" stroke-width="4" stroke-linecap="round" stroke-linejoin="round"/>
<path d="M52.7236 26.0719C53.5047 25.2909 53.5047 24.0245 52.7236 23.2435C51.9426 22.4625 50.6762 22.4625 49.8952 23.2435L52.7236 26.0719ZM41.6249 34.3422L40.2107 35.7564C40.5858 36.1315 41.0945 36.3422 41.6249 36.3422C42.1554 36.3422 42.6641 36.1315 43.0392 35.7564L41.6249 34.3422ZM38.1969 28.0857C37.4159 27.3047 36.1496 27.3047 35.3685 28.0857C34.5875 28.8668 34.5875 30.1331 35.3685 30.9142L38.1969 28.0857ZM49.8952 23.2435L40.2107 32.928L43.0392 35.7564L52.7236 26.0719L49.8952 23.2435ZM43.0392 32.928L38.1969 28.0857L35.3685 30.9142L40.2107 35.7564L43.0392 32.928Z" fill="#47BF71"/>
<path d="M22.256 29.5C27.6046 29.5 31.9405 25.1642 31.9405 19.8156C31.9405 14.467 27.6046 10.1311 22.256 10.1311C16.9074 10.1311 12.5715 14.467 12.5715 19.8156C12.5715 25.1642 16.9074 29.5 22.256 29.5Z" stroke="#47BF71" stroke-width="4" stroke-linecap="round" stroke-linejoin="round"/>
</svg>
