<svg width="438" height="471" viewBox="0 0 438 471" fill="none" xmlns="http://www.w3.org/2000/svg">
<path d="M280.088 471H89.5772C68.9232 471 52.1198 452.969 52.1198 430.807V40.193C52.1198 18.0306 68.9232 0 89.5772 0H280.088C300.742 0 317.545 18.0306 317.545 40.193V430.807C317.545 452.969 300.742 471 280.088 471Z" fill="#F2F2F2"/>
<path d="M317.546 143.681C316.672 143.681 315.961 144.443 315.961 145.381V199.792C315.961 200.73 316.672 201.493 317.546 201.493C318.42 201.493 319.13 200.73 319.13 199.792V145.381C319.13 144.443 318.42 143.681 317.546 143.681Z" fill="#F2F2F2"/>
<path d="M313.98 40.1933V430.8C313.98 450.09 299.988 465.87 282.296 467.094H282.288C282.026 467.111 281.765 467.128 281.495 467.137C281.028 467.162 280.56 467.171 280.085 467.171C280.085 467.171 278.342 467.034 275.157 466.779C271.94 466.524 267.258 466.142 261.418 465.64C259.667 465.496 257.821 465.334 255.872 465.164C251.99 464.824 247.727 464.45 243.155 464.025C241.333 463.863 239.447 463.685 237.522 463.506C227.681 462.597 216.66 461.534 205.037 460.327C203.072 460.131 201.091 459.927 199.095 459.714C198.572 459.655 198.041 459.604 197.51 459.544C189.222 458.669 180.705 457.725 172.156 456.722C171.625 456.662 171.094 456.603 170.571 456.543C155.842 454.8 141.058 452.905 127.224 450.864C116.583 449.3 106.505 447.65 97.4564 445.942C94.509 445.38 91.6725 444.819 88.9628 444.25C88.432 444.139 87.9011 444.029 87.3782 443.91C68.2279 439.795 55.6855 435.357 55.6855 430.8V40.1933C55.6855 20.1036 70.8584 3.82263 89.5808 3.82263H109.817C113.049 3.82263 115.648 6.52619 115.925 9.98643C115.949 10.216 115.973 10.4455 116.012 10.6751C116.599 14.1523 119.57 16.5753 122.866 16.5753H246.8C250.096 16.5753 253.067 14.1523 253.653 10.6751C253.693 10.4455 253.717 10.216 253.741 9.98643C254.018 6.52619 256.617 3.82263 259.849 3.82263H280.085C298.807 3.82263 313.98 20.1036 313.98 40.1933Z" fill="white"/>
<path d="M51.3276 102.872C50.4537 102.872 49.743 103.634 49.743 104.572V118.175C49.743 119.113 50.4537 119.875 51.3276 119.875C52.2016 119.875 52.9122 119.113 52.9122 118.175V104.572C52.9122 103.634 52.2016 102.872 51.3276 102.872Z" fill="#F2F2F2"/>
<path d="M51.3276 143.681C50.4537 143.681 49.743 144.443 49.743 145.381V171.736C49.743 172.674 50.4537 173.437 51.3276 173.437C52.2016 173.437 52.9122 172.674 52.9122 171.736V145.381C52.9122 144.443 52.2016 143.681 51.3276 143.681Z" fill="#F2F2F2"/>
<path d="M51.3276 181.088C50.4537 181.088 49.743 181.851 49.743 182.789V209.144C49.743 210.082 50.4537 210.845 51.3276 210.845C52.2016 210.845 52.9122 210.082 52.9122 209.144V182.789C52.9122 181.851 52.2016 181.088 51.3276 181.088Z" fill="#F2F2F2"/>
<path d="M107.978 9.77722H80.2471C79.3719 9.77722 78.6625 10.5385 78.6625 11.4776V12.3278C78.6625 13.2668 79.3719 14.0281 80.2471 14.0281H107.978C108.853 14.0281 109.563 13.2668 109.563 12.3278V11.4776C109.563 10.5385 108.853 9.77722 107.978 9.77722Z" fill="#F2F2F2"/>
<path d="M264.857 14.0281C266.607 14.0281 268.026 12.5056 268.026 10.6274C268.026 8.74924 266.607 7.22668 264.857 7.22668C263.106 7.22668 261.687 8.74924 261.687 10.6274C261.687 12.5056 263.106 14.0281 264.857 14.0281Z" fill="#F2F2F2"/>
<path d="M273.572 14.0281C275.322 14.0281 276.741 12.5056 276.741 10.6274C276.741 8.74924 275.322 7.22668 273.572 7.22668C271.822 7.22668 270.403 8.74924 270.403 10.6274C270.403 12.5056 271.822 14.0281 273.572 14.0281Z" fill="#F2F2F2"/>
<path d="M282.288 14.0281C284.038 14.0281 285.457 12.5056 285.457 10.6274C285.457 8.74924 284.038 7.22668 282.288 7.22668C280.537 7.22668 279.118 8.74924 279.118 10.6274C279.118 12.5056 280.537 14.0281 282.288 14.0281Z" fill="#F2F2F2"/>
<path d="M94.0405 133.84C102.534 133.84 109.418 126.608 109.418 117.687C109.418 108.765 102.534 101.533 94.0405 101.533C85.5474 101.533 78.6625 108.765 78.6625 117.687C78.6625 126.608 85.5474 133.84 94.0405 133.84Z" fill="#47BF71"/>
<path d="M217.319 112.16H134.546C131.706 112.16 129.396 109.681 129.396 106.634C129.396 103.587 131.706 101.108 134.546 101.108H217.319C220.159 101.108 222.469 103.587 222.469 106.634C222.469 109.681 220.159 112.16 217.319 112.16Z" fill="#E6E6E6"/>
<path d="M84.2526 299.159C82.9314 299.159 81.8567 300.312 81.8567 301.73C81.8567 303.148 82.9314 304.301 84.2526 304.301H170.95C172.271 304.301 173.346 303.148 173.346 301.73C173.346 300.312 172.271 299.159 170.95 299.159H84.2526Z" fill="#F2F2F2"/>
<path d="M281.916 130.864H134.546C131.706 130.864 129.396 128.385 129.396 125.338C129.396 122.291 131.706 119.812 134.546 119.812H281.916C284.756 119.812 287.066 122.291 287.066 125.338C287.066 128.385 284.756 130.864 281.916 130.864Z" fill="#E6E6E6"/>
<path d="M113.723 52.6478H82.2277C80.0434 52.6478 78.2661 50.7407 78.2661 48.3969C78.2661 46.0531 80.0434 44.146 82.2277 44.146H113.723C115.907 44.146 117.684 46.0531 117.684 48.3969C117.684 50.7407 115.907 52.6478 113.723 52.6478Z" fill="#E6E6E6"/>
<path d="M281.52 44.571H250.026C248.056 44.571 246.46 46.2839 246.46 48.3969C246.46 50.5098 248.056 52.2227 250.026 52.2227H281.52C283.489 52.2227 285.086 50.5098 285.086 48.3969C285.086 46.2839 283.489 44.571 281.52 44.571Z" fill="#47BF71"/>
<path d="M236.358 52.6478H204.864C202.679 52.6478 200.902 50.7407 200.902 48.3969C200.902 46.0531 202.679 44.146 204.864 44.146H236.358C238.542 44.146 240.32 46.0531 240.32 48.3969C240.32 50.7407 238.542 52.6478 236.358 52.6478Z" fill="#E6E6E6"/>
<path d="M118.278 286.675H88.1701C82.709 286.675 78.2661 281.907 78.2661 276.047V265.492C78.2661 259.632 82.709 254.864 88.1701 254.864H118.278C123.739 254.864 128.182 259.632 128.182 265.492V276.047C128.182 281.907 123.739 286.675 118.278 286.675Z" fill="#F2F2F2"/>
<path d="M277.162 225.835H88.1701C82.709 225.835 78.2661 221.068 78.2661 215.208V168.697C78.2661 162.837 82.709 158.07 88.1701 158.07H277.162C282.624 158.07 287.066 162.837 287.066 168.697V215.208C287.066 221.068 282.624 225.835 277.162 225.835Z" fill="#47BF71"/>
<path d="M275.949 286.675H245.841C240.38 286.675 235.937 281.907 235.937 276.047V265.492C235.937 259.632 240.38 254.864 245.841 254.864H275.949C281.41 254.864 285.853 259.632 285.853 265.492V276.047C285.853 281.907 281.41 286.675 275.949 286.675Z" fill="#F2F2F2"/>
<path d="M196.346 286.675H166.238C160.777 286.675 156.334 281.907 156.334 276.047V265.492C156.334 259.632 160.777 254.864 166.238 254.864H196.346C201.807 254.864 206.25 259.632 206.25 265.492V276.047C206.25 281.907 201.807 286.675 196.346 286.675Z" fill="#F2F2F2"/>
<path d="M128.999 333.632H105.23V357.437H128.999V333.632Z" fill="#F2F2F2"/>
<path d="M128.999 367.639H115.53V391.444H128.999V367.639Z" fill="#F2F2F2"/>
<path d="M159.9 367.639H136.13V391.444H159.9V367.639Z" fill="#F2F2F2"/>
<path d="M159.9 401.646H136.13V425.452H159.9V401.646Z" fill="#F2F2F2"/>
<path d="M190.8 367.639H167.031V391.444H190.8V367.639Z" fill="#F2F2F2"/>
<path d="M159.9 333.632H136.13V357.437H159.9V333.632Z" fill="#F2F2F2"/>
<path d="M190.8 333.632H167.031V357.437H190.8V333.632Z" fill="#F2F2F2"/>
<path d="M252.601 333.632H228.831V357.437H252.601V333.632Z" fill="#F2F2F2"/>
<path d="M190.8 401.646H167.031V425.452H190.8V401.646Z" fill="#F2F2F2"/>
<path d="M221.7 333.632H197.931V357.437H221.7V333.632Z" fill="#F2F2F2"/>
<path d="M264.882 367.639H249.431V391.444H264.882C267.069 391.444 268.843 389.541 268.843 387.194V371.89C268.843 369.543 267.069 367.639 264.882 367.639Z" fill="#F2F2F2"/>
<path d="M128.999 401.646H124.246C122.058 401.646 120.284 403.55 120.284 405.897V421.201C120.284 423.548 122.058 425.452 124.246 425.452H128.999V401.646Z" fill="#F2F2F2"/>
<path d="M221.7 401.646H197.931V425.452H221.7V401.646Z" fill="#F2F2F2"/>
<path d="M282.709 333.632H259.731V357.437H282.709C284.896 357.437 286.67 355.534 286.67 353.186V337.883C286.67 335.535 284.896 333.632 282.709 333.632Z" fill="#F2F2F2"/>
<path d="M242.301 402.005C241.815 401.777 241.28 401.646 240.716 401.646H228.831V425.452H240.716C241.28 425.452 241.815 425.321 242.301 425.093V402.005Z" fill="#F2F2F2"/>
<path d="M221.7 367.639H197.931V391.444H221.7V367.639Z" fill="#F2F2F2"/>
<path d="M242.301 367.639H228.831V391.444H242.301V367.639Z" fill="#F2F2F2"/>
<path d="M108.399 367.639H100.08C97.892 367.639 96.1183 369.543 96.1183 371.89V387.194C96.1183 389.541 97.892 391.444 100.08 391.444H108.399V367.639Z" fill="#F2F2F2"/>
<path d="M98.0991 333.632H82.2528C80.0649 333.632 78.2913 335.535 78.2913 337.883V353.186C78.2913 355.534 80.0649 357.437 82.2528 357.437H98.0991V333.632Z" fill="#F2F2F2"/>
<path d="M251.025 461.631L243.967 461.63L240.609 432.415L251.027 432.415L251.025 461.631Z" fill="#FFB6B6"/>
<path d="M251.274 469.533L229.567 469.532V469.237C229.567 464.23 233.35 460.172 238.016 460.171H238.016L241.981 456.943L249.379 460.172L251.274 460.172L251.274 469.533H251.274Z" fill="#2F2E41"/>
<path d="M294.971 461.631L287.913 461.63L284.555 432.415L294.973 432.415L294.971 461.631Z" fill="#FFB6B6"/>
<path d="M295.22 469.533L273.513 469.532V469.237C273.513 464.23 277.296 460.172 281.962 460.171H281.963L285.928 456.943L293.325 460.172L295.22 460.172L295.22 469.533Z" fill="#2F2E41"/>
<path d="M309.229 237.901H248.604L241.245 262.296L239.469 366.038L239.78 446.988L253.587 447.044L265.746 360.029C265.746 360.029 264.393 351.47 266.776 352.66C269.158 353.849 265.132 343.348 267.937 344.347C270.743 345.347 273.472 304.736 273.472 304.736L280.162 366.038L284.459 446.988H296.91L307.353 322.131C307.353 322.131 304.074 314.574 308.405 309.556C312.736 304.539 312.291 263.081 312.291 263.081L309.229 237.901Z" fill="#2F2E41"/>
<path d="M310.827 236.36C310.827 236.36 316.639 245.244 311.568 259.16C303.14 282.288 247.228 262.835 243.804 248.427C238.544 246.479 247.313 243.629 244.732 238.903C244.574 238.615 246.181 245.026 244.907 237.932C242.863 226.545 246.372 191.562 246.372 191.562L247.531 170.802C248.653 150.692 256.273 131.632 269.078 116.899L269.078 116.899H298.191L310.827 138.905L312.136 194.061L310.827 236.36H310.827Z" fill="#3F3D56"/>
<path d="M222.086 238.459L231.113 223.774L238.985 228.651L228.97 243.779C229.002 244.362 228.963 244.961 228.842 245.56C228.185 248.817 225.402 250.832 222.625 250.062C219.848 249.291 218.13 246.027 218.786 242.77C219.205 240.693 220.491 239.125 222.086 238.459H222.086Z" fill="#FFB6B6"/>
<path d="M264.813 121.615H264.813C254.701 121.615 246.38 130.156 245.932 140.996L244.001 187.695C244.001 187.695 243.987 190.289 243.092 189.521C242.198 188.753 242.122 191.469 242.122 191.469C242.122 191.469 242.082 195.623 241.238 193.245C240.395 190.867 240.28 195.17 240.28 195.17L227.998 217.845C229.648 221.507 228.366 226.035 227.958 229.723L236.789 238.445C236.789 238.445 236.712 235.826 238.615 235.871C250.284 236.141 262.232 202.319 262.031 189.81C261.801 175.536 264.813 121.615 264.813 121.615L264.813 121.615Z" fill="#3F3D56"/>
<path d="M268.962 56.6422L277.989 71.3269L285.861 66.4495L275.846 51.3221C275.878 50.7384 275.839 50.1396 275.718 49.5408C275.061 46.2842 272.277 44.2687 269.501 45.0391C266.724 45.8096 265.005 49.0742 265.662 52.3309C266.081 54.4078 267.367 55.9756 268.962 56.6422H268.962Z" fill="#FFB6B6"/>
<path d="M311.689 173.486H311.689C301.577 173.486 293.256 164.945 292.808 154.105L290.877 107.406C290.877 107.406 290.862 104.812 289.968 105.58C289.074 106.348 288.998 103.632 288.998 103.632C288.998 103.632 288.958 99.4776 288.114 101.856C287.271 104.234 287.156 99.9305 287.156 99.9305L271.095 67.6651L272.008 63.4563L280.797 56.3829C280.797 56.3829 284.348 57.5961 285.491 59.2302C291.254 67.4744 308.693 93.3787 308.907 105.291C309.162 119.564 311.689 173.486 311.689 173.486Z" fill="#3F3D56"/>
<path d="M276.047 112.179C276.477 112.286 276.908 112.378 277.338 112.449C278.676 112.684 280.014 112.755 281.319 112.67C285.28 112.449 289.016 110.879 292.037 108.291C295.23 105.562 297.614 101.702 298.615 97.1108C300.966 86.2714 294.68 75.4249 284.578 72.9016C274.622 70.4068 264.666 76.9175 262.123 87.4797C262.083 87.6432 262.043 87.7996 262.01 87.9631C259.659 98.8096 265.938 109.649 276.047 112.179V112.179Z" fill="#FFB6B6"/>
<path d="M299.591 99.153C296.969 106.58 290.333 112.467 282.936 112.82C281.676 112.875 280.365 112.773 279.251 112.129C278.131 111.492 277.266 110.211 277.362 108.859C277.559 106.195 280.936 105.173 281.888 102.698C282.518 101.063 281.793 98.9644 280.313 98.1706C278.834 97.3847 276.834 98.0134 275.992 99.546C277.53 97.031 276.629 93.4865 274.688 91.3252C272.755 89.1561 270.037 88.0479 267.415 86.9948L267.357 85.9259C265.504 86.6882 263.482 85.1557 262.676 83.1672C263.614 81.9491 264.207 80.4715 264.778 79.0176C264.009 79.5992 263.152 80.0235 262.244 80.2829C262.295 78.5539 259.878 77.7287 260.289 76.0311C260.86 73.6733 264.163 70.1445 263.079 68.0068C265.101 68.6198 266.419 71.1505 265.848 73.3196C266.573 71.1976 267.298 69.0756 268.023 66.9458C268.587 68.4233 269.151 69.9009 269.722 71.3705C272.484 69.5236 275.34 67.6452 278.548 67.0558C281.756 66.4585 285.448 67.4645 287.242 70.3881C289.11 69.1699 291.615 69.5472 293.461 70.8125C295.306 72.0778 296.595 74.082 297.628 76.1568C301.129 83.1516 302.213 91.7339 299.591 99.153V99.153Z" fill="#2F2E41"/>
<path d="M395.01 456.229C396.647 456.339 397.551 454.157 396.313 452.885L396.19 452.359C396.206 452.317 396.222 452.275 396.239 452.233C397.894 447.998 403.504 448.027 405.145 452.269C406.602 456.033 408.457 459.804 408.914 463.785C409.118 465.542 409.026 467.332 408.663 469.057C412.076 461.056 413.872 452.319 413.872 443.534C413.872 441.326 413.76 439.119 413.53 436.917C413.34 435.116 413.079 433.325 412.741 431.552C410.915 421.964 406.959 412.832 401.253 405.205C398.51 403.596 396.222 401.081 394.841 398.066C394.344 396.979 393.955 395.81 393.771 394.618C394.083 394.662 394.948 389.561 394.713 389.248C395.148 388.539 395.926 388.187 396.401 387.496C398.764 384.058 402.02 384.658 403.719 389.33C407.35 391.296 407.385 394.557 405.157 397.693C403.74 399.688 403.545 402.388 402.302 404.524C402.43 404.7 402.563 404.87 402.691 405.046C405.037 408.275 407.066 411.745 408.777 415.391C408.293 411.339 409.007 406.457 410.224 403.311C411.609 399.725 414.205 396.705 416.491 393.606C419.237 389.883 424.869 391.507 425.352 396.227C425.357 396.273 425.362 396.318 425.366 396.364C425.027 396.57 424.694 396.788 424.369 397.019C422.515 398.334 423.156 401.417 425.352 401.781L425.402 401.789C425.279 403.102 425.069 404.403 424.762 405.683C427.695 417.854 421.363 422.287 412.322 422.486C412.122 422.596 411.928 422.705 411.728 422.81C412.644 425.577 413.376 428.416 413.918 431.294C414.405 433.836 414.742 436.406 414.932 438.987C415.167 442.243 415.147 445.516 414.891 448.767L414.906 448.651C415.556 445.071 417.368 441.727 419.998 439.41C423.916 435.956 429.453 434.684 433.68 431.907C435.715 430.571 438.322 432.298 437.967 434.83L437.95 434.951C437.321 435.225 436.707 435.544 436.113 435.901C435.773 436.106 435.441 436.325 435.116 436.555C433.262 437.871 433.903 440.954 436.099 441.318L436.149 441.326C436.185 441.332 436.215 441.337 436.251 441.343C435.171 444.094 433.667 446.647 431.783 448.849C429.95 459.474 422.073 460.482 413.647 457.388H413.642C412.721 461.693 411.375 465.899 409.645 469.908H395.368C395.316 469.737 395.27 469.562 395.224 469.392C396.545 469.479 397.875 469.397 399.175 469.139C398.116 467.744 397.056 466.338 395.997 464.944C395.972 464.916 395.951 464.889 395.931 464.861C395.393 464.147 394.851 463.439 394.313 462.725L394.313 462.724C394.28 460.533 394.524 458.349 395.009 456.229L395.01 456.229V456.229Z" fill="#F2F2F2"/>
<path d="M0 469.953C0 470.514 0.419951 470.965 0.942903 470.965H436.946C437.469 470.965 437.889 470.514 437.889 469.953C437.889 469.392 437.469 468.942 436.946 468.942H0.942903C0.419951 468.942 0 469.392 0 469.953Z" fill="#CCCCCC"/>
</svg>
